%TF.GenerationSoftware,KiCad,Pcbnew,7.0.2*%
%TF.CreationDate,2023-07-19T18:14:24-04:00*%
%TF.ProjectId,basic_pid,62617369-635f-4706-9964-2e6b69636164,rev?*%
%TF.SameCoordinates,Original*%
%TF.FileFunction,Soldermask,Top*%
%TF.FilePolarity,Negative*%
%FSLAX46Y46*%
G04 Gerber Fmt 4.6, Leading zero omitted, Abs format (unit mm)*
G04 Created by KiCad (PCBNEW 7.0.2) date 2023-07-19 18:14:24*
%MOMM*%
%LPD*%
G01*
G04 APERTURE LIST*
G04 Aperture macros list*
%AMRoundRect*
0 Rectangle with rounded corners*
0 $1 Rounding radius*
0 $2 $3 $4 $5 $6 $7 $8 $9 X,Y pos of 4 corners*
0 Add a 4 corners polygon primitive as box body*
4,1,4,$2,$3,$4,$5,$6,$7,$8,$9,$2,$3,0*
0 Add four circle primitives for the rounded corners*
1,1,$1+$1,$2,$3*
1,1,$1+$1,$4,$5*
1,1,$1+$1,$6,$7*
1,1,$1+$1,$8,$9*
0 Add four rect primitives between the rounded corners*
20,1,$1+$1,$2,$3,$4,$5,0*
20,1,$1+$1,$4,$5,$6,$7,0*
20,1,$1+$1,$6,$7,$8,$9,0*
20,1,$1+$1,$8,$9,$2,$3,0*%
%AMOutline5P*
0 Free polygon, 5 corners , with rotation*
0 The origin of the aperture is its center*
0 number of corners: always 5*
0 $1 to $10 corner X, Y*
0 $11 Rotation angle, in degrees counterclockwise*
0 create outline with 5 corners*
4,1,5,$1,$2,$3,$4,$5,$6,$7,$8,$9,$10,$1,$2,$11*%
%AMOutline6P*
0 Free polygon, 6 corners , with rotation*
0 The origin of the aperture is its center*
0 number of corners: always 6*
0 $1 to $12 corner X, Y*
0 $13 Rotation angle, in degrees counterclockwise*
0 create outline with 6 corners*
4,1,6,$1,$2,$3,$4,$5,$6,$7,$8,$9,$10,$11,$12,$1,$2,$13*%
%AMOutline7P*
0 Free polygon, 7 corners , with rotation*
0 The origin of the aperture is its center*
0 number of corners: always 7*
0 $1 to $14 corner X, Y*
0 $15 Rotation angle, in degrees counterclockwise*
0 create outline with 7 corners*
4,1,7,$1,$2,$3,$4,$5,$6,$7,$8,$9,$10,$11,$12,$13,$14,$1,$2,$15*%
%AMOutline8P*
0 Free polygon, 8 corners , with rotation*
0 The origin of the aperture is its center*
0 number of corners: always 8*
0 $1 to $16 corner X, Y*
0 $17 Rotation angle, in degrees counterclockwise*
0 create outline with 8 corners*
4,1,8,$1,$2,$3,$4,$5,$6,$7,$8,$9,$10,$11,$12,$13,$14,$15,$16,$1,$2,$17*%
G04 Aperture macros list end*
%ADD10RoundRect,0.250000X-0.475000X0.250000X-0.475000X-0.250000X0.475000X-0.250000X0.475000X0.250000X0*%
%ADD11RoundRect,0.250000X0.475000X-0.250000X0.475000X0.250000X-0.475000X0.250000X-0.475000X-0.250000X0*%
%ADD12RoundRect,0.250000X0.250000X0.475000X-0.250000X0.475000X-0.250000X-0.475000X0.250000X-0.475000X0*%
%ADD13RoundRect,0.250000X-0.250000X-0.475000X0.250000X-0.475000X0.250000X0.475000X-0.250000X0.475000X0*%
%ADD14RoundRect,0.150000X-0.150000X0.825000X-0.150000X-0.825000X0.150000X-0.825000X0.150000X0.825000X0*%
%ADD15RoundRect,0.250000X0.262500X0.450000X-0.262500X0.450000X-0.262500X-0.450000X0.262500X-0.450000X0*%
%ADD16RoundRect,0.250000X0.450000X-0.262500X0.450000X0.262500X-0.450000X0.262500X-0.450000X-0.262500X0*%
%ADD17RoundRect,0.250000X-1.100000X0.325000X-1.100000X-0.325000X1.100000X-0.325000X1.100000X0.325000X0*%
%ADD18C,3.200000*%
%ADD19RoundRect,0.250000X-0.700000X1.825000X-0.700000X-1.825000X0.700000X-1.825000X0.700000X1.825000X0*%
%ADD20RoundRect,0.150000X-0.587500X-0.150000X0.587500X-0.150000X0.587500X0.150000X-0.587500X0.150000X0*%
%ADD21RoundRect,0.250000X-0.262500X-0.450000X0.262500X-0.450000X0.262500X0.450000X-0.262500X0.450000X0*%
%ADD22RoundRect,0.250000X-0.450000X0.262500X-0.450000X-0.262500X0.450000X-0.262500X0.450000X0.262500X0*%
%ADD23RoundRect,0.250000X1.050000X0.550000X-1.050000X0.550000X-1.050000X-0.550000X1.050000X-0.550000X0*%
%ADD24R,2.032000X0.660400*%
%ADD25C,0.355600*%
%ADD26R,2.540000X3.556000*%
%ADD27R,4.000000X4.000000*%
%ADD28C,4.000000*%
%ADD29RoundRect,0.150000X-0.825000X-0.150000X0.825000X-0.150000X0.825000X0.150000X-0.825000X0.150000X0*%
%ADD30RoundRect,0.250000X-0.300000X2.050000X-0.300000X-2.050000X0.300000X-2.050000X0.300000X2.050000X0*%
%ADD31RoundRect,0.250002X-5.149998X4.449998X-5.149998X-4.449998X5.149998X-4.449998X5.149998X4.449998X0*%
%ADD32R,3.200000X3.200000*%
%ADD33R,1.980000X3.960000*%
%ADD34O,1.980000X3.960000*%
%ADD35RoundRect,0.150000X-0.150000X0.587500X-0.150000X-0.587500X0.150000X-0.587500X0.150000X0.587500X0*%
%ADD36RoundRect,0.250000X0.325000X1.100000X-0.325000X1.100000X-0.325000X-1.100000X0.325000X-1.100000X0*%
%ADD37RoundRect,0.250000X0.850000X0.350000X-0.850000X0.350000X-0.850000X-0.350000X0.850000X-0.350000X0*%
%ADD38RoundRect,0.249997X2.950003X2.650003X-2.950003X2.650003X-2.950003X-2.650003X2.950003X-2.650003X0*%
%ADD39RoundRect,0.250000X1.825000X0.700000X-1.825000X0.700000X-1.825000X-0.700000X1.825000X-0.700000X0*%
%ADD40RoundRect,0.250000X1.100000X-0.325000X1.100000X0.325000X-1.100000X0.325000X-1.100000X-0.325000X0*%
%ADD41O,2.200000X1.524000*%
%ADD42O,1.524000X2.200000*%
%ADD43O,2.500000X1.600000*%
%ADD44RoundRect,0.508000X-0.317500X-0.762000X0.317500X-0.762000X0.317500X0.762000X-0.317500X0.762000X0*%
%ADD45RoundRect,0.508000X0.317500X0.762000X-0.317500X0.762000X-0.317500X-0.762000X0.317500X-0.762000X0*%
%ADD46O,1.500000X2.500000*%
%ADD47Outline8P,-1.500000X0.540000X-1.140000X0.900000X1.140000X0.900000X1.500000X0.540000X1.500000X-0.540000X1.140000X-0.900000X-1.140000X-0.900000X-1.500000X-0.540000X90.000000*%
%ADD48Outline8P,-1.500000X0.540000X-1.140000X0.900000X1.140000X0.900000X1.500000X0.540000X1.500000X-0.540000X1.140000X-0.900000X-1.140000X-0.900000X-1.500000X-0.540000X270.000000*%
%ADD49C,1.440000*%
G04 APERTURE END LIST*
D10*
%TO.C,C22*%
X147189785Y-79214186D03*
X147189785Y-81114186D03*
%TD*%
%TO.C,C28*%
X198120000Y-50866000D03*
X198120000Y-52766000D03*
%TD*%
D11*
%TO.C,C29*%
X221742000Y-52324000D03*
X221742000Y-50424000D03*
%TD*%
D12*
%TO.C,C36*%
X122529912Y-42780399D03*
X120629912Y-42780399D03*
%TD*%
D13*
%TO.C,C1*%
X193324556Y-65888588D03*
X195224556Y-65888588D03*
%TD*%
%TO.C,C30*%
X164571330Y-48543772D03*
X166471330Y-48543772D03*
%TD*%
D14*
%TO.C,U7*%
X164743107Y-41255715D03*
X163473107Y-41255715D03*
X162203107Y-41255715D03*
X160933107Y-41255715D03*
X160933107Y-46205715D03*
X162203107Y-46205715D03*
X163473107Y-46205715D03*
X164743107Y-46205715D03*
%TD*%
D15*
%TO.C,R20*%
X128904874Y-60765575D03*
X127079874Y-60765575D03*
%TD*%
D13*
%TO.C,C4*%
X119950490Y-75016237D03*
X121850490Y-75016237D03*
%TD*%
%TO.C,C31*%
X157271330Y-41177772D03*
X159171330Y-41177772D03*
%TD*%
D14*
%TO.C,U12*%
X131040539Y-46873999D03*
X129770539Y-46873999D03*
X128500539Y-46873999D03*
X127230539Y-46873999D03*
X127230539Y-51823999D03*
X128500539Y-51823999D03*
X129770539Y-51823999D03*
X131040539Y-51823999D03*
%TD*%
D16*
%TO.C,R28*%
X204791002Y-71661088D03*
X204791002Y-69836088D03*
%TD*%
D17*
%TO.C,C25*%
X238400000Y-102950000D03*
X238400000Y-105900000D03*
%TD*%
D18*
%TO.C,H1*%
X250825000Y-53975000D03*
%TD*%
D16*
%TO.C,R29*%
X136551318Y-59463248D03*
X136551318Y-57638248D03*
%TD*%
D13*
%TO.C,C9*%
X151482846Y-72675380D03*
X153382846Y-72675380D03*
%TD*%
D19*
%TO.C,C33*%
X244374513Y-84682000D03*
X244374513Y-91632000D03*
%TD*%
D16*
%TO.C,R4*%
X196410057Y-82206272D03*
X196410057Y-80381272D03*
%TD*%
D20*
%TO.C,U1*%
X200357500Y-71059000D03*
X200357500Y-72959000D03*
X202232500Y-72009000D03*
%TD*%
D10*
%TO.C,C12*%
X121715637Y-50644852D03*
X121715637Y-52544852D03*
%TD*%
D21*
%TO.C,R34*%
X223219000Y-40894000D03*
X225044000Y-40894000D03*
%TD*%
D22*
%TO.C,R13*%
X163820390Y-63250847D03*
X163820390Y-65075847D03*
%TD*%
D15*
%TO.C,R1*%
X197485000Y-70739000D03*
X195660000Y-70739000D03*
%TD*%
D18*
%TO.C,H2*%
X105410000Y-54610000D03*
%TD*%
D13*
%TO.C,C15*%
X189941612Y-78752855D03*
X191841612Y-78752855D03*
%TD*%
D10*
%TO.C,C40*%
X129785632Y-54116256D03*
X129785632Y-56016256D03*
%TD*%
D23*
%TO.C,C44*%
X174542000Y-55626000D03*
X170942000Y-55626000D03*
%TD*%
D16*
%TO.C,R23*%
X123190000Y-37441500D03*
X123190000Y-39266500D03*
%TD*%
D21*
%TO.C,R2*%
X197626000Y-118394000D03*
X199451000Y-118394000D03*
%TD*%
%TO.C,R9*%
X171531988Y-71886973D03*
X173356988Y-71886973D03*
%TD*%
D24*
%TO.C,U13*%
X131040539Y-43063999D03*
X131040539Y-41793999D03*
X131040539Y-40523999D03*
X131040539Y-39253999D03*
X125452539Y-39253999D03*
X125452539Y-40523999D03*
X125452539Y-41793999D03*
X125452539Y-43063999D03*
D25*
X129135539Y-42682999D03*
X129135539Y-41158999D03*
X129135539Y-39634999D03*
X128691039Y-41920999D03*
X128691039Y-40396999D03*
X128246539Y-42682999D03*
X128246539Y-41158999D03*
D26*
X128246539Y-41158999D03*
D25*
X128246539Y-39634999D03*
X127802039Y-41920999D03*
X127802039Y-40396999D03*
X127357539Y-42682999D03*
X127357539Y-41158999D03*
X127357539Y-39634999D03*
%TD*%
D27*
%TO.C,C19*%
X215400000Y-86900000D03*
D28*
X215400000Y-96900000D03*
%TD*%
D15*
%TO.C,R15*%
X163910050Y-35931061D03*
X162085050Y-35931061D03*
%TD*%
D29*
%TO.C,U10*%
X160404000Y-70358000D03*
X160404000Y-71628000D03*
X160404000Y-72898000D03*
X160404000Y-74168000D03*
X165354000Y-74168000D03*
X165354000Y-72898000D03*
X165354000Y-71628000D03*
X165354000Y-70358000D03*
%TD*%
D16*
%TO.C,R10*%
X183628521Y-74883000D03*
X183628521Y-76708000D03*
%TD*%
D30*
%TO.C,U15*%
X249241513Y-98360000D03*
X246701513Y-98360000D03*
D31*
X246701513Y-107510000D03*
D30*
X244161513Y-98360000D03*
%TD*%
D29*
%TO.C,U5*%
X194015347Y-74939710D03*
X194015347Y-76209710D03*
X194015347Y-77479710D03*
X194015347Y-78749710D03*
X198965347Y-78749710D03*
X198965347Y-77479710D03*
X198965347Y-76209710D03*
X198965347Y-74939710D03*
%TD*%
D13*
%TO.C,C2*%
X119920822Y-79616208D03*
X121820822Y-79616208D03*
%TD*%
%TO.C,C8*%
X151486890Y-74994304D03*
X153386890Y-74994304D03*
%TD*%
%TO.C,C3*%
X119937282Y-77281078D03*
X121837282Y-77281078D03*
%TD*%
%TO.C,C6*%
X151472514Y-79619652D03*
X153372514Y-79619652D03*
%TD*%
D10*
%TO.C,C10*%
X117156038Y-50644852D03*
X117156038Y-52544852D03*
%TD*%
D16*
%TO.C,R18*%
X121158000Y-61769000D03*
X121158000Y-59944000D03*
%TD*%
D15*
%TO.C,R32*%
X185231020Y-60415319D03*
X183406020Y-60415319D03*
%TD*%
D10*
%TO.C,C34*%
X226568000Y-50424000D03*
X226568000Y-52324000D03*
%TD*%
%TO.C,C11*%
X119423514Y-50644852D03*
X119423514Y-52544852D03*
%TD*%
D12*
%TO.C,C43*%
X125511875Y-45174552D03*
X123611875Y-45174552D03*
%TD*%
D10*
%TO.C,C23*%
X144633302Y-67528119D03*
X144633302Y-69428119D03*
%TD*%
D15*
%TO.C,R14*%
X121746574Y-81848528D03*
X119921574Y-81848528D03*
%TD*%
D13*
%TO.C,C14*%
X201288358Y-76214741D03*
X203188358Y-76214741D03*
%TD*%
D21*
%TO.C,R33*%
X194818000Y-41214000D03*
X196643000Y-41214000D03*
%TD*%
D22*
%TO.C,R27*%
X118104184Y-63495367D03*
X118104184Y-65320367D03*
%TD*%
D16*
%TO.C,R24*%
X181526556Y-120388090D03*
X181526556Y-118563090D03*
%TD*%
D10*
%TO.C,C13*%
X124068857Y-50655314D03*
X124068857Y-52555314D03*
%TD*%
D13*
%TO.C,C17*%
X171675343Y-74422000D03*
X173575343Y-74422000D03*
%TD*%
D12*
%TO.C,C38*%
X163939872Y-38064769D03*
X162039872Y-38064769D03*
%TD*%
D11*
%TO.C,C35*%
X193294000Y-52766000D03*
X193294000Y-50866000D03*
%TD*%
D21*
%TO.C,R16*%
X138403651Y-77441179D03*
X140228651Y-77441179D03*
%TD*%
D14*
%TO.C,U11*%
X114357857Y-70674542D03*
X113087857Y-70674542D03*
X111817857Y-70674542D03*
X110547857Y-70674542D03*
X110547857Y-75624542D03*
X111817857Y-75624542D03*
X113087857Y-75624542D03*
X114357857Y-75624542D03*
%TD*%
D13*
%TO.C,C27*%
X106821027Y-70654882D03*
X108721027Y-70654882D03*
%TD*%
%TO.C,C5*%
X119957344Y-72734573D03*
X121857344Y-72734573D03*
%TD*%
D32*
%TO.C,D1*%
X236060000Y-109900000D03*
D18*
X230980000Y-109900000D03*
X225900000Y-109900000D03*
X220820000Y-109900000D03*
%TD*%
%TO.C,H4*%
X250400000Y-123400000D03*
%TD*%
D15*
%TO.C,R30*%
X189888500Y-60960000D03*
X188063500Y-60960000D03*
%TD*%
D21*
%TO.C,R17*%
X138376980Y-75144498D03*
X140201980Y-75144498D03*
%TD*%
D33*
%TO.C,J6*%
X210460000Y-120400000D03*
D34*
X215460000Y-120400000D03*
X220460000Y-120400000D03*
%TD*%
D10*
%TO.C,C37*%
X131037208Y-35534266D03*
X131037208Y-37434266D03*
%TD*%
D14*
%TO.C,U9*%
X148474003Y-71553337D03*
X147204003Y-71553337D03*
X145934003Y-71553337D03*
X144664003Y-71553337D03*
X144664003Y-76503337D03*
X145934003Y-76503337D03*
X147204003Y-76503337D03*
X148474003Y-76503337D03*
%TD*%
D18*
%TO.C,H3*%
X104775000Y-123825000D03*
%TD*%
D11*
%TO.C,C21*%
X160388639Y-78277554D03*
X160388639Y-76377554D03*
%TD*%
D16*
%TO.C,R11*%
X183628521Y-80518000D03*
X183628521Y-78693000D03*
%TD*%
D14*
%TO.C,U4*%
X225933000Y-43245000D03*
X224663000Y-43245000D03*
X223393000Y-43245000D03*
X222123000Y-43245000D03*
X222123000Y-48195000D03*
X223393000Y-48195000D03*
X224663000Y-48195000D03*
X225933000Y-48195000D03*
%TD*%
D15*
%TO.C,R19*%
X128921050Y-63093340D03*
X127096050Y-63093340D03*
%TD*%
D35*
%TO.C,U2*%
X203261000Y-117886000D03*
X201361000Y-117886000D03*
X202311000Y-119761000D03*
%TD*%
D16*
%TO.C,R25*%
X142394771Y-64770000D03*
X142394771Y-62945000D03*
%TD*%
D13*
%TO.C,C7*%
X151486890Y-77278515D03*
X153386890Y-77278515D03*
%TD*%
D12*
%TO.C,C39*%
X176306175Y-34668646D03*
X174406175Y-34668646D03*
%TD*%
D15*
%TO.C,R3*%
X195198784Y-68208047D03*
X193373784Y-68208047D03*
%TD*%
D13*
%TO.C,C16*%
X182998521Y-71044749D03*
X184898521Y-71044749D03*
%TD*%
D36*
%TO.C,C24*%
X216310000Y-57150000D03*
X213360000Y-57150000D03*
%TD*%
D15*
%TO.C,R22*%
X123989447Y-47365468D03*
X122164447Y-47365468D03*
%TD*%
D10*
%TO.C,C26*%
X114054319Y-78050749D03*
X114054319Y-79950749D03*
%TD*%
D37*
%TO.C,U16*%
X186285914Y-57852853D03*
D38*
X179985914Y-55572853D03*
D37*
X186285914Y-53292853D03*
%TD*%
D16*
%TO.C,R6*%
X180594000Y-78636500D03*
X180594000Y-76811500D03*
%TD*%
D39*
%TO.C,C32*%
X204900000Y-59400000D03*
X197950000Y-59400000D03*
%TD*%
D21*
%TO.C,R5*%
X197413847Y-72767739D03*
X195588847Y-72767739D03*
%TD*%
D40*
%TO.C,C42*%
X186068098Y-50830458D03*
X186068098Y-47880458D03*
%TD*%
D27*
%TO.C,C18*%
X236400000Y-63400000D03*
D28*
X236400000Y-73400000D03*
%TD*%
D29*
%TO.C,U6*%
X175685406Y-70576901D03*
X175685406Y-71846901D03*
X175685406Y-73116901D03*
X175685406Y-74386901D03*
X180635406Y-74386901D03*
X180635406Y-73116901D03*
X180635406Y-71846901D03*
X180635406Y-70576901D03*
%TD*%
D16*
%TO.C,R26*%
X168910000Y-120336220D03*
X168910000Y-118511220D03*
%TD*%
%TO.C,R7*%
X175514000Y-78486000D03*
X175514000Y-76661000D03*
%TD*%
D30*
%TO.C,U14*%
X216662000Y-61946000D03*
X214122000Y-61946000D03*
D31*
X214122000Y-71096000D03*
D30*
X211582000Y-61946000D03*
%TD*%
D14*
%TO.C,U3*%
X197612000Y-43630000D03*
X196342000Y-43630000D03*
X195072000Y-43630000D03*
X193802000Y-43630000D03*
X193802000Y-48580000D03*
X195072000Y-48580000D03*
X196342000Y-48580000D03*
X197612000Y-48580000D03*
%TD*%
D22*
%TO.C,R12*%
X149860000Y-117959500D03*
X149860000Y-119784500D03*
%TD*%
D21*
%TO.C,R21*%
X127078976Y-58745812D03*
X128903976Y-58745812D03*
%TD*%
D13*
%TO.C,C20*%
X167394283Y-71452427D03*
X169294283Y-71452427D03*
%TD*%
D24*
%TO.C,U8*%
X172300512Y-38469772D03*
X172300512Y-37199772D03*
X172300512Y-35929772D03*
X172300512Y-34659772D03*
X166712512Y-34659772D03*
X166712512Y-35929772D03*
X166712512Y-37199772D03*
X166712512Y-38469772D03*
D25*
X170395512Y-38088772D03*
X170395512Y-36564772D03*
X170395512Y-35040772D03*
X169951012Y-37326772D03*
X169951012Y-35802772D03*
X169506512Y-38088772D03*
X169506512Y-36564772D03*
D26*
X169506512Y-36564772D03*
D25*
X169506512Y-35040772D03*
X169062012Y-37326772D03*
X169062012Y-35802772D03*
X168617512Y-38088772D03*
X168617512Y-36564772D03*
X168617512Y-35040772D03*
%TD*%
D16*
%TO.C,R8*%
X178054000Y-78382500D03*
X178054000Y-76557500D03*
%TD*%
D33*
%TO.C,J5*%
X228400000Y-120400000D03*
D34*
X233400000Y-120400000D03*
X238400000Y-120400000D03*
X243400000Y-120400000D03*
%TD*%
D16*
%TO.C,R31*%
X133343552Y-38588712D03*
X133343552Y-36763712D03*
%TD*%
D41*
%TO.C,SW8*%
X135890000Y-79650000D03*
X135890000Y-77350000D03*
X135890000Y-75050000D03*
X135890000Y-72750000D03*
X135890000Y-70450000D03*
X135890000Y-81950000D03*
%TD*%
D42*
%TO.C,SW9*%
X117200000Y-55880000D03*
X119500000Y-55880000D03*
X121800000Y-55880000D03*
X124100000Y-55880000D03*
X126400000Y-55880000D03*
X114900000Y-55880000D03*
%TD*%
D28*
%TO.C,J4*%
X125730000Y-33020000D03*
X115570000Y-43180000D03*
D43*
X120650000Y-38100000D03*
X120650000Y-40640000D03*
%TD*%
D44*
%TO.C,RV3*%
X147300000Y-122750000D03*
X149800000Y-122750000D03*
X147300000Y-67750000D03*
X142300000Y-67750000D03*
X142300000Y-122750000D03*
X144800000Y-122750000D03*
%TD*%
D45*
%TO.C,RV4*%
X163850000Y-67750000D03*
X161350000Y-67750000D03*
X163850000Y-122750000D03*
X168850000Y-122750000D03*
X168850000Y-67750000D03*
X166350000Y-67750000D03*
%TD*%
D46*
%TO.C,SW5*%
X191600000Y-100520000D03*
X191600000Y-96520000D03*
X191600000Y-92520000D03*
X189400000Y-100520000D03*
X189400000Y-96520000D03*
X189400000Y-92520000D03*
D47*
X193600000Y-104020000D03*
X187400000Y-89020000D03*
%TD*%
D46*
%TO.C,SW1*%
X202100000Y-34100000D03*
X202100000Y-38100000D03*
X202100000Y-42100000D03*
X204300000Y-34100000D03*
X204300000Y-38100000D03*
X204300000Y-42100000D03*
D48*
X200100000Y-30600000D03*
X206300000Y-45600000D03*
%TD*%
D45*
%TO.C,RV5*%
X113050000Y-67750000D03*
X110550000Y-67750000D03*
X113050000Y-122750000D03*
X118050000Y-122750000D03*
X118050000Y-67750000D03*
X115550000Y-67750000D03*
%TD*%
%TO.C,RV1*%
X199410000Y-67750000D03*
X196910000Y-67750000D03*
X199410000Y-122750000D03*
X204410000Y-122750000D03*
X204410000Y-67750000D03*
X201910000Y-67750000D03*
%TD*%
D49*
%TO.C,RV6*%
X139065000Y-55880000D03*
X136525000Y-55880000D03*
X133985000Y-55880000D03*
%TD*%
D46*
%TO.C,SW3*%
X128100000Y-100520000D03*
X128100000Y-96520000D03*
X128100000Y-92520000D03*
X125900000Y-100520000D03*
X125900000Y-96520000D03*
X125900000Y-92520000D03*
D47*
X130100000Y-104020000D03*
X123900000Y-89020000D03*
%TD*%
D49*
%TO.C,RV7*%
X190647006Y-58437475D03*
X190647006Y-55897475D03*
X190647006Y-53357475D03*
%TD*%
D46*
%TO.C,SW10*%
X137625000Y-42100000D03*
X137625000Y-38100000D03*
X137625000Y-34100000D03*
X135425000Y-42100000D03*
X135425000Y-38100000D03*
X135425000Y-34100000D03*
D47*
X139625000Y-45600000D03*
X133425000Y-30600000D03*
%TD*%
D46*
%TO.C,SW2*%
X217000000Y-42100000D03*
X217000000Y-38100000D03*
X217000000Y-34100000D03*
X214800000Y-42100000D03*
X214800000Y-38100000D03*
X214800000Y-34100000D03*
D47*
X219000000Y-45600000D03*
X212800000Y-30600000D03*
%TD*%
D42*
%TO.C,SW4*%
X148950000Y-55880000D03*
X151250000Y-55880000D03*
X153550000Y-55880000D03*
X155850000Y-55880000D03*
X158150000Y-55880000D03*
X146650000Y-55880000D03*
%TD*%
D28*
%TO.C,J2*%
X240030000Y-33020000D03*
X229870000Y-43180000D03*
D43*
X234950000Y-38100000D03*
X234950000Y-40640000D03*
%TD*%
D41*
%TO.C,SW7*%
X155575000Y-79650000D03*
X155575000Y-77350000D03*
X155575000Y-75050000D03*
X155575000Y-72750000D03*
X155575000Y-70450000D03*
X155575000Y-81950000D03*
%TD*%
D28*
%TO.C,J1*%
X189230000Y-33020000D03*
X179070000Y-43180000D03*
D43*
X184150000Y-38100000D03*
X184150000Y-40640000D03*
%TD*%
D41*
%TO.C,SW6*%
X125730000Y-79650000D03*
X125730000Y-77350000D03*
X125730000Y-75050000D03*
X125730000Y-72750000D03*
X125730000Y-70450000D03*
X125730000Y-81950000D03*
%TD*%
D45*
%TO.C,RV2*%
X176550000Y-67750000D03*
X174050000Y-67750000D03*
X176550000Y-122750000D03*
X181550000Y-122750000D03*
X181550000Y-67750000D03*
X179050000Y-67750000D03*
%TD*%
D28*
%TO.C,J3*%
X157480000Y-33020000D03*
X147320000Y-43180000D03*
D43*
X152400000Y-38100000D03*
X152400000Y-40640000D03*
%TD*%
M02*
