M48
; DRILL file {KiCad 7.0.2} date Wed 19 Jul 2023 06:14:18 PM EDT
; FORMAT={-:-/ absolute / inch / decimal}
; #@! TF.CreationDate,2023-07-19T18:14:18-04:00
; #@! TF.GenerationSoftware,Kicad,Pcbnew,7.0.2
; #@! TF.FileFunction,MixedPlating,1,4
FMAT,2
INCH
; #@! TA.AperFunction,Plated,PTH,ComponentDrill
T1C0.0100
; #@! TA.AperFunction,Plated,PTH,ViaDrill
T2C0.0157
; #@! TA.AperFunction,Plated,PTH,ComponentDrill
T3C0.0315
; #@! TA.AperFunction,Plated,PTH,ComponentDrill
T4C0.0354
; #@! TA.AperFunction,Plated,PTH,ComponentDrill
T5C0.0433
; #@! TA.AperFunction,Plated,PTH,ComponentDrill
T6C0.0551
; #@! TA.AperFunction,Plated,PTH,ComponentDrill
T7C0.0600
; #@! TA.AperFunction,Plated,PTH,ComponentDrill
T8C0.0630
; #@! TA.AperFunction,Plated,PTH,ComponentDrill
T9C0.0787
; #@! TA.AperFunction,NonPlated,NPTH,ComponentDrill
T10C0.1260
%
G90
G05
T1
X5.0141Y-1.5604
X5.0141Y-1.6204
X5.0141Y-1.6804
X5.0316Y-1.5904
X5.0316Y-1.6504
X5.0491Y-1.5604
X5.0491Y-1.6204
X5.0491Y-1.6804
X5.0666Y-1.5904
X5.0666Y-1.6504
X5.0841Y-1.5604
X5.0841Y-1.6204
X5.0841Y-1.6804
X6.6385Y-1.3796
X6.6385Y-1.4396
X6.6385Y-1.4996
X6.656Y-1.4096
X6.656Y-1.4696
X6.6735Y-1.3796
X6.6735Y-1.4396
X6.6735Y-1.4996
X6.691Y-1.4096
X6.691Y-1.4696
X6.7085Y-1.3796
X6.7085Y-1.4396
X6.7085Y-1.4996
T2
X4.05Y-1.05
X4.06Y-1.68
X4.06Y-1.73
X4.06Y-1.78
X4.12Y-1.05
X4.16Y-2.78
X4.19Y-1.05
X4.27Y-3.55
X4.28Y-1.05
X4.34Y-1.68
X4.34Y-1.73
X4.34Y-1.78
X4.3523Y-2.8387
X4.4Y-2.91
X4.4027Y-2.8403
X4.45Y-3.55
X4.4524Y-2.9232
X4.4904Y-3.1917
X4.65Y-2.46
X4.66Y-3.22
X4.8099Y-1.779
X4.8815Y-1.6487
X4.9787Y-1.7794
X5.0222Y-1.7321
X5.0608Y-1.7789
X5.1031Y-2.2428
X5.1094Y-2.091
X5.13Y-2.6
X5.1301Y-1.7589
X5.1609Y-1.3488
X5.1841Y-1.7603
X5.3759Y-2.3779
X5.44Y-3.48
X5.53Y-2.08
X5.6052Y-2.4321
X5.647Y-2.8104
X5.7Y-2.59
X5.7447Y-2.7678
X5.7956Y-3.074
X5.797Y-3.2404
X5.9Y-4.6
X6.12Y-2.66
X6.14Y-3.48
X6.15Y-1.62
X6.16Y-2.06
X6.1913Y-1.688
X6.2591Y-2.8705
X6.3066Y-1.625
X6.3165Y-2.9621
X6.3165Y-3.1221
X6.4366Y-1.8712
X6.44Y-2.87
X6.4496Y-2.4504
X6.45Y-3.48
X6.4526Y-2.8199
X6.4995Y-1.4629
X6.5966Y-1.9112
X6.65Y-2.18
X6.65Y-4.63
X6.71Y-2.3
X6.71Y-2.8296
X6.7189Y-2.93
X6.7866Y-1.3212
X6.91Y-3.15
X6.94Y-2.19
X6.9695Y-2.927
X6.98Y-1.3612
X7.01Y-3.14
X7.0595Y-2.8286
X7.1464Y-4.627
X7.2296Y-3.2168
X7.25Y-2.87
X7.31Y-3.13
X7.3195Y-2.797
X7.3268Y-2.0389
X7.37Y-2.53
X7.44Y-3.1
X7.5Y-2.57
X7.55Y-3.02
X7.57Y-2.59
X7.61Y-3.17
X7.6285Y-1.8528
X7.6557Y-2.7842
X7.68Y-1.85
X7.73Y-3.28
X7.7323Y-2.0997
X7.7393Y-4.661
X7.7781Y-1.8524
X7.8674Y-2.1
X7.95Y-3.08
X8.05Y-3.0
X8.0626Y-2.8609
X8.186Y-2.3369
X8.2235Y-2.3357
X8.2622Y-2.3357
X8.2985Y-2.3439
X8.5069Y-2.3266
X8.7447Y-1.8352
X8.8942Y-1.8348
X9.49Y-3.74
X9.53Y-3.74
X9.57Y-3.74
X9.61Y-3.74
T3
X5.275Y-2.2
X5.375Y-2.2
X5.475Y-2.2
X7.5058Y-2.1007
X7.5058Y-2.2007
X7.5058Y-2.3007
T4
X4.5236Y-2.2
X4.6142Y-2.2
X4.7047Y-2.2
X4.75Y-1.5
X4.75Y-1.6
X4.7953Y-2.2
X4.8858Y-2.2
X4.95Y-2.7736
X4.95Y-2.8642
X4.95Y-2.9547
X4.95Y-3.0453
X4.95Y-3.1358
X4.95Y-3.2264
X4.9567Y-3.6425
X4.9567Y-3.8
X4.9567Y-3.9575
X4.9764Y-2.2
X5.0433Y-3.6425
X5.0433Y-3.8
X5.0433Y-3.9575
X5.3317Y-1.3425
X5.3317Y-1.5
X5.3317Y-1.6575
X5.35Y-2.7736
X5.35Y-2.8642
X5.35Y-2.9547
X5.35Y-3.0453
X5.35Y-3.1358
X5.35Y-3.2264
X5.4183Y-1.3425
X5.4183Y-1.5
X5.4183Y-1.6575
X5.7736Y-2.2
X5.8642Y-2.2
X5.9547Y-2.2
X6.0Y-1.5
X6.0Y-1.6
X6.0453Y-2.2
X6.125Y-2.7736
X6.125Y-2.8642
X6.125Y-2.9547
X6.125Y-3.0453
X6.125Y-3.1358
X6.125Y-3.2264
X6.1358Y-2.2
X6.2264Y-2.2
X7.25Y-1.5
X7.25Y-1.6
X7.4567Y-3.6425
X7.4567Y-3.8
X7.4567Y-3.9575
X7.5433Y-3.6425
X7.5433Y-3.8
X7.5433Y-3.9575
X7.9567Y-1.3425
X7.9567Y-1.5
X7.9567Y-1.6575
X8.0433Y-1.3425
X8.0433Y-1.5
X8.0433Y-1.6575
X8.4567Y-1.3425
X8.4567Y-1.5
X8.4567Y-1.6575
X8.5433Y-1.3425
X8.5433Y-1.5
X8.5433Y-1.6575
X9.25Y-1.5
X9.25Y-1.6
T5
X4.3524Y-2.6673
X4.4508Y-2.6673
X4.4508Y-4.8327
X4.5492Y-2.6673
X4.6476Y-2.6673
X4.6476Y-4.8327
X5.6024Y-2.6673
X5.6024Y-4.8327
X5.7008Y-4.8327
X5.7992Y-2.6673
X5.7992Y-4.8327
X5.8976Y-4.8327
X6.3524Y-2.6673
X6.4508Y-2.6673
X6.4508Y-4.8327
X6.5492Y-2.6673
X6.6476Y-2.6673
X6.6476Y-4.8327
X6.8524Y-2.6673
X6.9508Y-2.6673
X6.9508Y-4.8327
X7.0492Y-2.6673
X7.1476Y-2.6673
X7.1476Y-4.8327
X7.7524Y-2.6673
X7.8508Y-2.6673
X7.8508Y-4.8327
X7.9492Y-2.6673
X8.0476Y-2.6673
X8.0476Y-4.8327
T6
X4.878Y-3.5047
X5.122Y-4.0953
X5.253Y-1.2047
X5.497Y-1.7953
X7.378Y-3.5047
X7.622Y-4.0953
X7.878Y-1.2047
X8.122Y-1.7953
X8.378Y-1.2047
X8.622Y-1.7953
T7
X8.2858Y-4.7402
X8.4827Y-4.7402
X8.6795Y-4.7402
X8.9921Y-4.7402
X9.189Y-4.7402
X9.3858Y-4.7402
X9.5827Y-4.7402
T8
X8.6937Y-4.3268
X8.8937Y-4.3268
X9.0937Y-4.3268
X9.2937Y-4.3268
T9
X4.55Y-1.7
X4.95Y-1.3
X5.8Y-1.7
X6.2Y-1.3
X7.05Y-1.7
X7.45Y-1.3
X8.4803Y-3.4213
X8.4803Y-3.815
X9.05Y-1.7
X9.3071Y-2.4961
X9.3071Y-2.8898
X9.45Y-1.3
T10
X4.125Y-4.875
X4.15Y-2.15
X9.8583Y-4.8583
X9.875Y-2.125
T0
M30
