%TF.GenerationSoftware,KiCad,Pcbnew,7.0.2*%
%TF.CreationDate,2023-07-19T18:14:24-04:00*%
%TF.ProjectId,basic_pid,62617369-635f-4706-9964-2e6b69636164,rev?*%
%TF.SameCoordinates,Original*%
%TF.FileFunction,Paste,Top*%
%TF.FilePolarity,Positive*%
%FSLAX46Y46*%
G04 Gerber Fmt 4.6, Leading zero omitted, Abs format (unit mm)*
G04 Created by KiCad (PCBNEW 7.0.2) date 2023-07-19 18:14:24*
%MOMM*%
%LPD*%
G01*
G04 APERTURE LIST*
G04 Aperture macros list*
%AMRoundRect*
0 Rectangle with rounded corners*
0 $1 Rounding radius*
0 $2 $3 $4 $5 $6 $7 $8 $9 X,Y pos of 4 corners*
0 Add a 4 corners polygon primitive as box body*
4,1,4,$2,$3,$4,$5,$6,$7,$8,$9,$2,$3,0*
0 Add four circle primitives for the rounded corners*
1,1,$1+$1,$2,$3*
1,1,$1+$1,$4,$5*
1,1,$1+$1,$6,$7*
1,1,$1+$1,$8,$9*
0 Add four rect primitives between the rounded corners*
20,1,$1+$1,$2,$3,$4,$5,0*
20,1,$1+$1,$4,$5,$6,$7,0*
20,1,$1+$1,$6,$7,$8,$9,0*
20,1,$1+$1,$8,$9,$2,$3,0*%
G04 Aperture macros list end*
%ADD10RoundRect,0.250000X-0.475000X0.250000X-0.475000X-0.250000X0.475000X-0.250000X0.475000X0.250000X0*%
%ADD11RoundRect,0.250000X0.475000X-0.250000X0.475000X0.250000X-0.475000X0.250000X-0.475000X-0.250000X0*%
%ADD12RoundRect,0.250000X0.250000X0.475000X-0.250000X0.475000X-0.250000X-0.475000X0.250000X-0.475000X0*%
%ADD13RoundRect,0.250000X-0.250000X-0.475000X0.250000X-0.475000X0.250000X0.475000X-0.250000X0.475000X0*%
%ADD14RoundRect,0.150000X-0.150000X0.825000X-0.150000X-0.825000X0.150000X-0.825000X0.150000X0.825000X0*%
%ADD15RoundRect,0.250000X0.262500X0.450000X-0.262500X0.450000X-0.262500X-0.450000X0.262500X-0.450000X0*%
%ADD16RoundRect,0.250000X0.450000X-0.262500X0.450000X0.262500X-0.450000X0.262500X-0.450000X-0.262500X0*%
%ADD17RoundRect,0.250000X-1.100000X0.325000X-1.100000X-0.325000X1.100000X-0.325000X1.100000X0.325000X0*%
%ADD18RoundRect,0.250000X-0.700000X1.825000X-0.700000X-1.825000X0.700000X-1.825000X0.700000X1.825000X0*%
%ADD19RoundRect,0.150000X-0.587500X-0.150000X0.587500X-0.150000X0.587500X0.150000X-0.587500X0.150000X0*%
%ADD20RoundRect,0.250000X-0.262500X-0.450000X0.262500X-0.450000X0.262500X0.450000X-0.262500X0.450000X0*%
%ADD21RoundRect,0.250000X-0.450000X0.262500X-0.450000X-0.262500X0.450000X-0.262500X0.450000X0.262500X0*%
%ADD22RoundRect,0.250000X1.050000X0.550000X-1.050000X0.550000X-1.050000X-0.550000X1.050000X-0.550000X0*%
%ADD23R,2.032000X0.660400*%
%ADD24R,2.540000X3.556000*%
%ADD25RoundRect,0.150000X-0.825000X-0.150000X0.825000X-0.150000X0.825000X0.150000X-0.825000X0.150000X0*%
%ADD26RoundRect,0.250000X-0.300000X2.050000X-0.300000X-2.050000X0.300000X-2.050000X0.300000X2.050000X0*%
%ADD27RoundRect,0.250000X-2.375000X2.025000X-2.375000X-2.025000X2.375000X-2.025000X2.375000X2.025000X0*%
%ADD28RoundRect,0.150000X-0.150000X0.587500X-0.150000X-0.587500X0.150000X-0.587500X0.150000X0.587500X0*%
%ADD29RoundRect,0.250000X0.325000X1.100000X-0.325000X1.100000X-0.325000X-1.100000X0.325000X-1.100000X0*%
%ADD30RoundRect,0.250000X0.850000X0.350000X-0.850000X0.350000X-0.850000X-0.350000X0.850000X-0.350000X0*%
%ADD31RoundRect,0.250000X1.275000X1.125000X-1.275000X1.125000X-1.275000X-1.125000X1.275000X-1.125000X0*%
%ADD32RoundRect,0.250000X1.825000X0.700000X-1.825000X0.700000X-1.825000X-0.700000X1.825000X-0.700000X0*%
%ADD33RoundRect,0.250000X1.100000X-0.325000X1.100000X0.325000X-1.100000X0.325000X-1.100000X-0.325000X0*%
G04 APERTURE END LIST*
D10*
%TO.C,C22*%
X147189785Y-79214186D03*
X147189785Y-81114186D03*
%TD*%
%TO.C,C28*%
X198120000Y-50866000D03*
X198120000Y-52766000D03*
%TD*%
D11*
%TO.C,C29*%
X221742000Y-52324000D03*
X221742000Y-50424000D03*
%TD*%
D12*
%TO.C,C36*%
X122529912Y-42780399D03*
X120629912Y-42780399D03*
%TD*%
D13*
%TO.C,C1*%
X193324556Y-65888588D03*
X195224556Y-65888588D03*
%TD*%
%TO.C,C30*%
X164571330Y-48543772D03*
X166471330Y-48543772D03*
%TD*%
D14*
%TO.C,U7*%
X164743107Y-41255715D03*
X163473107Y-41255715D03*
X162203107Y-41255715D03*
X160933107Y-41255715D03*
X160933107Y-46205715D03*
X162203107Y-46205715D03*
X163473107Y-46205715D03*
X164743107Y-46205715D03*
%TD*%
D15*
%TO.C,R20*%
X128904874Y-60765575D03*
X127079874Y-60765575D03*
%TD*%
D13*
%TO.C,C4*%
X119950490Y-75016237D03*
X121850490Y-75016237D03*
%TD*%
%TO.C,C31*%
X157271330Y-41177772D03*
X159171330Y-41177772D03*
%TD*%
D14*
%TO.C,U12*%
X131040539Y-46873999D03*
X129770539Y-46873999D03*
X128500539Y-46873999D03*
X127230539Y-46873999D03*
X127230539Y-51823999D03*
X128500539Y-51823999D03*
X129770539Y-51823999D03*
X131040539Y-51823999D03*
%TD*%
D16*
%TO.C,R28*%
X204791002Y-71661088D03*
X204791002Y-69836088D03*
%TD*%
D17*
%TO.C,C25*%
X238400000Y-102950000D03*
X238400000Y-105900000D03*
%TD*%
D16*
%TO.C,R29*%
X136551318Y-59463248D03*
X136551318Y-57638248D03*
%TD*%
D13*
%TO.C,C9*%
X151482846Y-72675380D03*
X153382846Y-72675380D03*
%TD*%
D18*
%TO.C,C33*%
X244374513Y-84682000D03*
X244374513Y-91632000D03*
%TD*%
D16*
%TO.C,R4*%
X196410057Y-82206272D03*
X196410057Y-80381272D03*
%TD*%
D19*
%TO.C,U1*%
X200357500Y-71059000D03*
X200357500Y-72959000D03*
X202232500Y-72009000D03*
%TD*%
D10*
%TO.C,C12*%
X121715637Y-50644852D03*
X121715637Y-52544852D03*
%TD*%
D20*
%TO.C,R34*%
X223219000Y-40894000D03*
X225044000Y-40894000D03*
%TD*%
D21*
%TO.C,R13*%
X163820390Y-63250847D03*
X163820390Y-65075847D03*
%TD*%
D15*
%TO.C,R1*%
X197485000Y-70739000D03*
X195660000Y-70739000D03*
%TD*%
D13*
%TO.C,C15*%
X189941612Y-78752855D03*
X191841612Y-78752855D03*
%TD*%
D10*
%TO.C,C40*%
X129785632Y-54116256D03*
X129785632Y-56016256D03*
%TD*%
D22*
%TO.C,C44*%
X174542000Y-55626000D03*
X170942000Y-55626000D03*
%TD*%
D16*
%TO.C,R23*%
X123190000Y-37441500D03*
X123190000Y-39266500D03*
%TD*%
D20*
%TO.C,R2*%
X197626000Y-118394000D03*
X199451000Y-118394000D03*
%TD*%
%TO.C,R9*%
X171531988Y-71886973D03*
X173356988Y-71886973D03*
%TD*%
D23*
%TO.C,U13*%
X131040539Y-43063999D03*
X131040539Y-41793999D03*
X131040539Y-40523999D03*
X131040539Y-39253999D03*
X125452539Y-39253999D03*
X125452539Y-40523999D03*
X125452539Y-41793999D03*
X125452539Y-43063999D03*
D24*
X128246539Y-41158999D03*
%TD*%
D15*
%TO.C,R15*%
X163910050Y-35931061D03*
X162085050Y-35931061D03*
%TD*%
D25*
%TO.C,U10*%
X160404000Y-70358000D03*
X160404000Y-71628000D03*
X160404000Y-72898000D03*
X160404000Y-74168000D03*
X165354000Y-74168000D03*
X165354000Y-72898000D03*
X165354000Y-71628000D03*
X165354000Y-70358000D03*
%TD*%
D16*
%TO.C,R10*%
X183628521Y-74883000D03*
X183628521Y-76708000D03*
%TD*%
D26*
%TO.C,U15*%
X249241513Y-98360000D03*
X246701513Y-98360000D03*
D27*
X249476513Y-105085000D03*
X243926513Y-105085000D03*
X249476513Y-109935000D03*
X243926513Y-109935000D03*
D26*
X244161513Y-98360000D03*
%TD*%
D25*
%TO.C,U5*%
X194015347Y-74939710D03*
X194015347Y-76209710D03*
X194015347Y-77479710D03*
X194015347Y-78749710D03*
X198965347Y-78749710D03*
X198965347Y-77479710D03*
X198965347Y-76209710D03*
X198965347Y-74939710D03*
%TD*%
D13*
%TO.C,C2*%
X119920822Y-79616208D03*
X121820822Y-79616208D03*
%TD*%
%TO.C,C8*%
X151486890Y-74994304D03*
X153386890Y-74994304D03*
%TD*%
%TO.C,C3*%
X119937282Y-77281078D03*
X121837282Y-77281078D03*
%TD*%
%TO.C,C6*%
X151472514Y-79619652D03*
X153372514Y-79619652D03*
%TD*%
D10*
%TO.C,C10*%
X117156038Y-50644852D03*
X117156038Y-52544852D03*
%TD*%
D16*
%TO.C,R18*%
X121158000Y-61769000D03*
X121158000Y-59944000D03*
%TD*%
D15*
%TO.C,R32*%
X185231020Y-60415319D03*
X183406020Y-60415319D03*
%TD*%
D10*
%TO.C,C34*%
X226568000Y-50424000D03*
X226568000Y-52324000D03*
%TD*%
%TO.C,C11*%
X119423514Y-50644852D03*
X119423514Y-52544852D03*
%TD*%
D12*
%TO.C,C43*%
X125511875Y-45174552D03*
X123611875Y-45174552D03*
%TD*%
D10*
%TO.C,C23*%
X144633302Y-67528119D03*
X144633302Y-69428119D03*
%TD*%
D15*
%TO.C,R14*%
X121746574Y-81848528D03*
X119921574Y-81848528D03*
%TD*%
D13*
%TO.C,C14*%
X201288358Y-76214741D03*
X203188358Y-76214741D03*
%TD*%
D20*
%TO.C,R33*%
X194818000Y-41214000D03*
X196643000Y-41214000D03*
%TD*%
D21*
%TO.C,R27*%
X118104184Y-63495367D03*
X118104184Y-65320367D03*
%TD*%
D16*
%TO.C,R24*%
X181526556Y-120388090D03*
X181526556Y-118563090D03*
%TD*%
D10*
%TO.C,C13*%
X124068857Y-50655314D03*
X124068857Y-52555314D03*
%TD*%
D13*
%TO.C,C17*%
X171675343Y-74422000D03*
X173575343Y-74422000D03*
%TD*%
D12*
%TO.C,C38*%
X163939872Y-38064769D03*
X162039872Y-38064769D03*
%TD*%
D11*
%TO.C,C35*%
X193294000Y-52766000D03*
X193294000Y-50866000D03*
%TD*%
D20*
%TO.C,R16*%
X138403651Y-77441179D03*
X140228651Y-77441179D03*
%TD*%
D14*
%TO.C,U11*%
X114357857Y-70674542D03*
X113087857Y-70674542D03*
X111817857Y-70674542D03*
X110547857Y-70674542D03*
X110547857Y-75624542D03*
X111817857Y-75624542D03*
X113087857Y-75624542D03*
X114357857Y-75624542D03*
%TD*%
D13*
%TO.C,C27*%
X106821027Y-70654882D03*
X108721027Y-70654882D03*
%TD*%
%TO.C,C5*%
X119957344Y-72734573D03*
X121857344Y-72734573D03*
%TD*%
D15*
%TO.C,R30*%
X189888500Y-60960000D03*
X188063500Y-60960000D03*
%TD*%
D20*
%TO.C,R17*%
X138376980Y-75144498D03*
X140201980Y-75144498D03*
%TD*%
D10*
%TO.C,C37*%
X131037208Y-35534266D03*
X131037208Y-37434266D03*
%TD*%
D14*
%TO.C,U9*%
X148474003Y-71553337D03*
X147204003Y-71553337D03*
X145934003Y-71553337D03*
X144664003Y-71553337D03*
X144664003Y-76503337D03*
X145934003Y-76503337D03*
X147204003Y-76503337D03*
X148474003Y-76503337D03*
%TD*%
D11*
%TO.C,C21*%
X160388639Y-78277554D03*
X160388639Y-76377554D03*
%TD*%
D16*
%TO.C,R11*%
X183628521Y-80518000D03*
X183628521Y-78693000D03*
%TD*%
D14*
%TO.C,U4*%
X225933000Y-43245000D03*
X224663000Y-43245000D03*
X223393000Y-43245000D03*
X222123000Y-43245000D03*
X222123000Y-48195000D03*
X223393000Y-48195000D03*
X224663000Y-48195000D03*
X225933000Y-48195000D03*
%TD*%
D15*
%TO.C,R19*%
X128921050Y-63093340D03*
X127096050Y-63093340D03*
%TD*%
D28*
%TO.C,U2*%
X203261000Y-117886000D03*
X201361000Y-117886000D03*
X202311000Y-119761000D03*
%TD*%
D16*
%TO.C,R25*%
X142394771Y-64770000D03*
X142394771Y-62945000D03*
%TD*%
D13*
%TO.C,C7*%
X151486890Y-77278515D03*
X153386890Y-77278515D03*
%TD*%
D12*
%TO.C,C39*%
X176306175Y-34668646D03*
X174406175Y-34668646D03*
%TD*%
D15*
%TO.C,R3*%
X195198784Y-68208047D03*
X193373784Y-68208047D03*
%TD*%
D13*
%TO.C,C16*%
X182998521Y-71044749D03*
X184898521Y-71044749D03*
%TD*%
D29*
%TO.C,C24*%
X216310000Y-57150000D03*
X213360000Y-57150000D03*
%TD*%
D15*
%TO.C,R22*%
X123989447Y-47365468D03*
X122164447Y-47365468D03*
%TD*%
D10*
%TO.C,C26*%
X114054319Y-78050749D03*
X114054319Y-79950749D03*
%TD*%
D30*
%TO.C,U16*%
X186285914Y-57852853D03*
D31*
X181660914Y-57097853D03*
X181660914Y-54047853D03*
X178310914Y-57097853D03*
X178310914Y-54047853D03*
D30*
X186285914Y-53292853D03*
%TD*%
D16*
%TO.C,R6*%
X180594000Y-78636500D03*
X180594000Y-76811500D03*
%TD*%
D32*
%TO.C,C32*%
X204900000Y-59400000D03*
X197950000Y-59400000D03*
%TD*%
D20*
%TO.C,R5*%
X197413847Y-72767739D03*
X195588847Y-72767739D03*
%TD*%
D33*
%TO.C,C42*%
X186068098Y-50830458D03*
X186068098Y-47880458D03*
%TD*%
D25*
%TO.C,U6*%
X175685406Y-70576901D03*
X175685406Y-71846901D03*
X175685406Y-73116901D03*
X175685406Y-74386901D03*
X180635406Y-74386901D03*
X180635406Y-73116901D03*
X180635406Y-71846901D03*
X180635406Y-70576901D03*
%TD*%
D16*
%TO.C,R26*%
X168910000Y-120336220D03*
X168910000Y-118511220D03*
%TD*%
%TO.C,R7*%
X175514000Y-78486000D03*
X175514000Y-76661000D03*
%TD*%
D26*
%TO.C,U14*%
X216662000Y-61946000D03*
X214122000Y-61946000D03*
D27*
X216897000Y-68671000D03*
X211347000Y-68671000D03*
X216897000Y-73521000D03*
X211347000Y-73521000D03*
D26*
X211582000Y-61946000D03*
%TD*%
D14*
%TO.C,U3*%
X197612000Y-43630000D03*
X196342000Y-43630000D03*
X195072000Y-43630000D03*
X193802000Y-43630000D03*
X193802000Y-48580000D03*
X195072000Y-48580000D03*
X196342000Y-48580000D03*
X197612000Y-48580000D03*
%TD*%
D21*
%TO.C,R12*%
X149860000Y-117959500D03*
X149860000Y-119784500D03*
%TD*%
D20*
%TO.C,R21*%
X127078976Y-58745812D03*
X128903976Y-58745812D03*
%TD*%
D13*
%TO.C,C20*%
X167394283Y-71452427D03*
X169294283Y-71452427D03*
%TD*%
D23*
%TO.C,U8*%
X172300512Y-38469772D03*
X172300512Y-37199772D03*
X172300512Y-35929772D03*
X172300512Y-34659772D03*
X166712512Y-34659772D03*
X166712512Y-35929772D03*
X166712512Y-37199772D03*
X166712512Y-38469772D03*
D24*
X169506512Y-36564772D03*
%TD*%
D16*
%TO.C,R8*%
X178054000Y-78382500D03*
X178054000Y-76557500D03*
%TD*%
%TO.C,R31*%
X133343552Y-38588712D03*
X133343552Y-36763712D03*
%TD*%
M02*
